<mxfile host="app.diagrams.net" agent="Mozilla/5.0 (Macintosh; Intel Mac OS X 10_15_7) AppleWebKit/537.36 (KHTML, like Gecko) Chrome/127.0.0.0 Safari/537.36" version="24.7.6">
  <diagram name="ページ1" id="mHwg5NyQNrpVbFLi7LDj">
    <mxGraphModel dx="1509" dy="827" grid="1" gridSize="10" guides="1" tooltips="1" connect="1" arrows="1" fold="1" page="1" pageScale="1" pageWidth="827" pageHeight="1169" math="0" shadow="0">
      <root>
        <mxCell id="0" />
        <mxCell id="1" parent="0" />
        <mxCell id="ozLeThp8QFuG8bKPz6EM-18" value="" style="rounded=0;whiteSpace=wrap;html=1;" vertex="1" parent="1">
          <mxGeometry x="520" y="40" width="360" height="280" as="geometry" />
        </mxCell>
        <mxCell id="ozLeThp8QFuG8bKPz6EM-9" value="" style="rounded=0;whiteSpace=wrap;html=1;" vertex="1" parent="1">
          <mxGeometry x="80" y="40" width="400" height="280" as="geometry" />
        </mxCell>
        <mxCell id="ozLeThp8QFuG8bKPz6EM-1" value="Scene 1" style="rounded=0;whiteSpace=wrap;html=1;" vertex="1" parent="1">
          <mxGeometry x="120" y="80" width="80" height="120" as="geometry" />
        </mxCell>
        <mxCell id="ozLeThp8QFuG8bKPz6EM-5" value="Scene 3" style="rounded=0;whiteSpace=wrap;html=1;" vertex="1" parent="1">
          <mxGeometry x="360" y="80" width="80" height="120" as="geometry" />
        </mxCell>
        <mxCell id="ozLeThp8QFuG8bKPz6EM-6" value="" style="endArrow=classic;html=1;rounded=0;strokeColor=#F58A50;strokeWidth=2;" edge="1" parent="1">
          <mxGeometry width="50" height="50" relative="1" as="geometry">
            <mxPoint x="190" y="139.69" as="sourcePoint" />
            <mxPoint x="370" y="139.69" as="targetPoint" />
          </mxGeometry>
        </mxCell>
        <mxCell id="ozLeThp8QFuG8bKPz6EM-4" value="Scene 2" style="rounded=0;whiteSpace=wrap;html=1;strokeColor=none;" vertex="1" parent="1">
          <mxGeometry x="240" y="80" width="80" height="120" as="geometry" />
        </mxCell>
        <mxCell id="ozLeThp8QFuG8bKPz6EM-2" value="" style="html=1;verticalLabelPosition=bottom;align=center;labelBackgroundColor=#ffffff;verticalAlign=top;strokeWidth=2;strokeColor=#0080F0;shadow=0;dashed=0;shape=mxgraph.ios7.icons.smartphone;fillColor=none;" vertex="1" parent="1">
          <mxGeometry x="240" y="67" width="80" height="158" as="geometry" />
        </mxCell>
        <mxCell id="ozLeThp8QFuG8bKPz6EM-8" value="" style="rounded=0;whiteSpace=wrap;html=1;strokeColor=none;fillColor=#F58A50;" vertex="1" parent="1">
          <mxGeometry x="280" y="240" width="160" height="50" as="geometry" />
        </mxCell>
        <mxCell id="ozLeThp8QFuG8bKPz6EM-7" value="画面の切り替えは&lt;div&gt;Sceneの切り替えで行う&lt;/div&gt;" style="text;html=1;align=center;verticalAlign=middle;whiteSpace=wrap;rounded=0;fontStyle=1;fontColor=#FFFFFF;" vertex="1" parent="1">
          <mxGeometry x="290" y="250" width="140" height="30" as="geometry" />
        </mxCell>
        <mxCell id="ozLeThp8QFuG8bKPz6EM-10" value="" style="rounded=0;whiteSpace=wrap;html=1;" vertex="1" parent="1">
          <mxGeometry x="560" y="120" width="80" height="120" as="geometry" />
        </mxCell>
        <mxCell id="ozLeThp8QFuG8bKPz6EM-11" value="" style="rounded=0;whiteSpace=wrap;html=1;" vertex="1" parent="1">
          <mxGeometry x="570" y="110" width="80" height="120" as="geometry" />
        </mxCell>
        <mxCell id="ozLeThp8QFuG8bKPz6EM-12" value="" style="rounded=0;whiteSpace=wrap;html=1;" vertex="1" parent="1">
          <mxGeometry x="580" y="100" width="80" height="120" as="geometry" />
        </mxCell>
        <mxCell id="ozLeThp8QFuG8bKPz6EM-13" value="" style="rounded=0;whiteSpace=wrap;html=1;" vertex="1" parent="1">
          <mxGeometry x="590" y="90" width="80" height="120" as="geometry" />
        </mxCell>
        <mxCell id="ozLeThp8QFuG8bKPz6EM-14" value="Layer 5" style="rounded=0;whiteSpace=wrap;html=1;" vertex="1" parent="1">
          <mxGeometry x="600" y="80" width="80" height="120" as="geometry" />
        </mxCell>
        <mxCell id="ozLeThp8QFuG8bKPz6EM-16" value="" style="rounded=0;whiteSpace=wrap;html=1;strokeColor=none;fillColor=#F58A50;" vertex="1" parent="1">
          <mxGeometry x="670" y="240" width="160" height="50" as="geometry" />
        </mxCell>
        <mxCell id="ozLeThp8QFuG8bKPz6EM-17" value="各Sceneには&lt;div&gt;Layerを重ねていく&lt;/div&gt;" style="text;html=1;align=center;verticalAlign=middle;whiteSpace=wrap;rounded=0;fontStyle=1;fontColor=#FFFFFF;" vertex="1" parent="1">
          <mxGeometry x="680" y="250" width="140" height="30" as="geometry" />
        </mxCell>
      </root>
    </mxGraphModel>
  </diagram>
</mxfile>
